{
    "asset" : {
        "generator" : "Khronos glTF Blender I/O v1.3.48",
        "version" : "2.0"
    },
    "scene" : 0,
    "scenes" : [
        {
            "name" : "Scene",
            "nodes" : [
                5,
                6
            ]
        }
    ],
    "nodes" : [
        {
            "name" : "Bottom",
            "translation" : [
                -6.357299753290135e-08,
                0,
                1
            ]
        },
        {
            "name" : "Top",
            "translation" : [
                -6.357299753290135e-08,
                1,
                1
            ]
        },
        {
            "children" : [
                0,
                1
            ],
            "name" : "Root",
            "rotation" : [
                0,
                1,
                0,
                -1.9470718370939721e-07
            ],
            "translation" : [
                3.2584136988589307e-07,
                0,
                1
            ]
        },
        {
            "mesh" : 0,
            "name" : "Cube",
            "skin" : 0
        },
        {
            "name" : "Lamp",
            "rotation" : [
                0.27217137813568115,
                -0.5709474086761475,
                0.16907569766044617,
                0.7558804154396057
            ],
            "translation" : [
                2.667851209640503,
                3.8707027435302734,
                -3.3492143154144287
            ]
        },
        {
            "children" : [
                3,
                4,
                2
            ],
            "name" : "Armature"
        },
        {
            "name" : "Camera",
            "rotation" : [
                0.5458257794380188,
                -0.18474623560905457,
                0.09925378113985062,
                0.8112285733222961
            ],
            "translation" : [
                -3.1704390048980713,
                4.090931415557861,
                7.043276786804199
            ]
        }
    ],
    "animations" : [
        {
            "channels" : [
                {
                    "sampler" : 0,
                    "target" : {
                        "node" : 2,
                        "path" : "translation"
                    }
                },
                {
                    "sampler" : 1,
                    "target" : {
                        "node" : 2,
                        "path" : "rotation"
                    }
                },
                {
                    "sampler" : 2,
                    "target" : {
                        "node" : 2,
                        "path" : "scale"
                    }
                },
                {
                    "sampler" : 3,
                    "target" : {
                        "node" : 0,
                        "path" : "translation"
                    }
                },
                {
                    "sampler" : 4,
                    "target" : {
                        "node" : 0,
                        "path" : "rotation"
                    }
                },
                {
                    "sampler" : 5,
                    "target" : {
                        "node" : 0,
                        "path" : "scale"
                    }
                },
                {
                    "sampler" : 6,
                    "target" : {
                        "node" : 1,
                        "path" : "translation"
                    }
                },
                {
                    "sampler" : 7,
                    "target" : {
                        "node" : 1,
                        "path" : "rotation"
                    }
                },
                {
                    "sampler" : 8,
                    "target" : {
                        "node" : 1,
                        "path" : "scale"
                    }
                }
            ],
            "name" : "ArmatureAction",
            "samplers" : [
                {
                    "input" : 7,
                    "interpolation" : "LINEAR",
                    "output" : 8
                },
                {
                    "input" : 7,
                    "interpolation" : "LINEAR",
                    "output" : 9
                },
                {
                    "input" : 7,
                    "interpolation" : "LINEAR",
                    "output" : 10
                },
                {
                    "input" : 7,
                    "interpolation" : "LINEAR",
                    "output" : 11
                },
                {
                    "input" : 7,
                    "interpolation" : "LINEAR",
                    "output" : 12
                },
                {
                    "input" : 7,
                    "interpolation" : "LINEAR",
                    "output" : 13
                },
                {
                    "input" : 7,
                    "interpolation" : "LINEAR",
                    "output" : 14
                },
                {
                    "input" : 7,
                    "interpolation" : "LINEAR",
                    "output" : 15
                },
                {
                    "input" : 7,
                    "interpolation" : "LINEAR",
                    "output" : 16
                }
            ]
        }
    ],
    "meshes" : [
        {
            "name" : "Cube",
            "primitives" : [
                {
                    "attributes" : {
                        "POSITION" : 0,
                        "NORMAL" : 1,
                        "TEXCOORD_0" : 2,
                        "JOINTS_0" : 3,
                        "WEIGHTS_0" : 4
                    },
                    "indices" : 5
                }
            ]
        }
    ],
    "skins" : [
        {
            "inverseBindMatrices" : 6,
            "joints" : [
                2,
                0,
                1
            ],
            "name" : "Armature"
        }
    ],
    "accessors" : [
        {
            "bufferView" : 0,
            "componentType" : 5126,
            "count" : 351,
            "max" : [
                1.1545088291168213,
                2.212170124053955,
                1.1072670221328735
            ],
            "min" : [
                -1.036818265914917,
                0.016546785831451416,
                -1.1784062385559082
            ],
            "type" : "VEC3"
        },
        {
            "bufferView" : 1,
            "componentType" : 5126,
            "count" : 351,
            "type" : "VEC3"
        },
        {
            "bufferView" : 2,
            "componentType" : 5126,
            "count" : 351,
            "type" : "VEC2"
        },
        {
            "bufferView" : 3,
            "componentType" : 5123,
            "count" : 351,
            "type" : "VEC4"
        },
        {
            "bufferView" : 4,
            "componentType" : 5126,
            "count" : 351,
            "type" : "VEC4"
        },
        {
            "bufferView" : 5,
            "componentType" : 5123,
            "count" : 1296,
            "type" : "SCALAR"
        },
        {
            "bufferView" : 6,
            "componentType" : 5126,
            "count" : 3,
            "type" : "MAT4"
        },
        {
            "bufferView" : 7,
            "componentType" : 5126,
            "count" : 666,
            "max" : [
                27.708333333333332
            ],
            "min" : [
                0
            ],
            "type" : "SCALAR"
        },
        {
            "bufferView" : 8,
            "componentType" : 5126,
            "count" : 666,
            "type" : "VEC3"
        },
        {
            "bufferView" : 9,
            "componentType" : 5126,
            "count" : 666,
            "type" : "VEC4"
        },
        {
            "bufferView" : 10,
            "componentType" : 5126,
            "count" : 666,
            "type" : "VEC3"
        },
        {
            "bufferView" : 11,
            "componentType" : 5126,
            "count" : 666,
            "type" : "VEC3"
        },
        {
            "bufferView" : 12,
            "componentType" : 5126,
            "count" : 666,
            "type" : "VEC4"
        },
        {
            "bufferView" : 13,
            "componentType" : 5126,
            "count" : 666,
            "type" : "VEC3"
        },
        {
            "bufferView" : 14,
            "componentType" : 5126,
            "count" : 666,
            "type" : "VEC3"
        },
        {
            "bufferView" : 15,
            "componentType" : 5126,
            "count" : 666,
            "type" : "VEC4"
        },
        {
            "bufferView" : 16,
            "componentType" : 5126,
            "count" : 666,
            "type" : "VEC3"
        }
    ],
    "bufferViews" : [
        {
            "buffer" : 0,
            "byteLength" : 4212,
            "byteOffset" : 0
        },
        {
            "buffer" : 0,
            "byteLength" : 4212,
            "byteOffset" : 4212
        },
        {
            "buffer" : 0,
            "byteLength" : 2808,
            "byteOffset" : 8424
        },
        {
            "buffer" : 0,
            "byteLength" : 2808,
            "byteOffset" : 11232
        },
        {
            "buffer" : 0,
            "byteLength" : 5616,
            "byteOffset" : 14040
        },
        {
            "buffer" : 0,
            "byteLength" : 2592,
            "byteOffset" : 19656
        },
        {
            "buffer" : 0,
            "byteLength" : 192,
            "byteOffset" : 22248
        },
        {
            "buffer" : 0,
            "byteLength" : 2664,
            "byteOffset" : 22440
        },
        {
            "buffer" : 0,
            "byteLength" : 7992,
            "byteOffset" : 25104
        },
        {
            "buffer" : 0,
            "byteLength" : 10656,
            "byteOffset" : 33096
        },
        {
            "buffer" : 0,
            "byteLength" : 7992,
            "byteOffset" : 43752
        },
        {
            "buffer" : 0,
            "byteLength" : 7992,
            "byteOffset" : 51744
        },
        {
            "buffer" : 0,
            "byteLength" : 10656,
            "byteOffset" : 59736
        },
        {
            "buffer" : 0,
            "byteLength" : 7992,
            "byteOffset" : 70392
        },
        {
            "buffer" : 0,
            "byteLength" : 7992,
            "byteOffset" : 78384
        },
        {
            "buffer" : 0,
            "byteLength" : 10656,
            "byteOffset" : 86376
        },
        {
            "buffer" : 0,
            "byteLength" : 7992,
            "byteOffset" : 97032
        }
    ],
    "buffers" : [
        {
            "byteLength" : 105024,
            "uri" : "data:application/octet-stream;base64,"
        }
    ]
}
